<svg xmlns="http://www.w3.org/2000/svg" xmlns:xlink="http://www.w3.org/1999/xlink" viewBox="0,0,256,256" width="24px" height="24px"><g fill="#75dab4" fill-rule="nonzero" stroke="none" stroke-width="1" stroke-linecap="butt" stroke-linejoin="miter" stroke-miterlimit="10" stroke-dasharray="" stroke-dashoffset="0" font-family="none" font-weight="none" font-size="none" text-anchor="none" style="mix-blend-mode: normal"><g transform="scale(10.66667,10.66667)"><path d="M11.5,0c-1.381,0 -2.5,1.119 -2.5,2.5v1.5h-4c-1.105,0 -2,0.895 -2,2v4h1.5c1.381,0 2.5,1.119 2.5,2.5c0,1.381 -1.119,2.5 -2.5,2.5h-1.5v4c0,1.105 0.895,2 2,2h4v-1.5c0,-1.381 1.119,-2.5 2.5,-2.5c1.381,0 2.5,1.119 2.5,2.5v1.5h4c1.105,0 2,-0.895 2,-2v-4h1.5c1.381,0 2.5,-1.119 2.5,-2.5c0,-1.381 -1.119,-2.5 -2.5,-2.5h-1.5v-4c0,-1.105 -0.895,-2 -2,-2h-4v-1.5c0,-1.381 -1.119,-2.5 -2.5,-2.5z"></path></g></g></svg>