<svg id="line_icons" height="512" viewBox="0 0 74 74" width="512" xmlns="http://www.w3.org/2000/svg" data-name="line icons"><path d="m36.256 72a24.212 24.212 0 1 1 24.212-24.212 24.239 24.239 0 0 1 -24.212 24.212zm0-46.424a22.212 22.212 0 1 0 22.212 22.212 22.237 22.237 0 0 0 -22.212-22.212z"/><path d="m36.256 65.231a17.443 17.443 0 1 1 17.444-17.443 17.464 17.464 0 0 1 -17.444 17.443zm0-32.886a15.443 15.443 0 1 0 15.444 15.443 15.46 15.46 0 0 0 -15.444-15.443z"/><path d="m22.087 30.4a1 1 0 0 1 -.912-.589l-9.296-20.611a1 1 0 0 1 .255-1.165l6.655-5.793a1 1 0 0 1 1.564.333l10.432 22.467a1 1 0 0 1 -1.814.843l-9.871-21.258-5.093 4.432 8.993 19.932a1 1 0 0 1 -.5 1.322.985.985 0 0 1 -.413.087z"/><path d="m50.424 30.4a.982.982 0 0 1 -.41-.089 1 1 0 0 1 -.5-1.322l8.986-19.929-5.088-4.425-9.872 21.25a1 1 0 0 1 -1.814-.843l10.432-22.455a1 1 0 0 1 1.564-.333l6.655 5.784a1 1 0 0 1 .255 1.162l-9.3 20.61a1 1 0 0 1 -.908.59z"/><path d="m49.263 12.194h-26.012a1 1 0 0 1 -.907-.579l-3.806-8.194a1 1 0 0 1 .907-1.421h33.62a1 1 0 0 1 .908 1.421l-3.8 8.194a1 1 0 0 1 -.91.579zm-25.374-2h24.735l2.876-6.194h-30.487z"/><path d="m31.242 56.5a1 1 0 0 1 -.985-1.169l.868-5.064-3.68-3.587a1 1 0 0 1 .555-1.703l5.085-.739 2.274-4.607a1 1 0 0 1 .9-.558 1 1 0 0 1 .9.558l2.274 4.607 5.085.739a1 1 0 0 1 .554 1.706l-3.686 3.587.868 5.064a1 1 0 0 1 -1.454 1.054l-4.544-2.388-4.549 2.391a.994.994 0 0 1 -.465.109zm-.95-9.838 2.6 2.54a1 1 0 0 1 .288.884l-.615 3.586 3.221-1.693a1 1 0 0 1 .931 0l3.218 1.693-.614-3.586a1 1 0 0 1 .287-.884l2.606-2.54-3.6-.523a1 1 0 0 1 -.753-.547l-1.609-3.262-1.606 3.27a1 1 0 0 1 -.753.547z"/></svg>